# xmcd
#
# Track frame offsets:
#	150
#	14326
#	29192
#	43647
#	58086
#	72487
#	86620
#	104368
#	121204
#	133913
#	150238
#	163010
#	177291
#	195037
#	207480
#
# Disc length: 2955 seconds
#
# Revision: 1
# Processed by: cddbd v1.5.2PL0 Copyright (c) Steve Scherf et al.
# Submitted via: audiograbber 1.83.01
#
DISCID=cf0b890f
DTITLE=Sergio Correa and Paulinho - Pode Brigar Comigo
DYEAR=2009
DGENRE=Forro - Sertanejo
TTITLE0=Pode Brigar Comigo
TTITLE1=Bar de Esquina
TTITLE2=Tá Bombando
TTITLE3=Ordem de Despejo
TTITLE4=Bebendo Pinga
TTITLE5=Matando a Pau
TTITLE6=Suspende a Saidera
TTITLE7=Ela Chora Chora
TTITLE8=Baile do Tchá
TTITLE9=Paixão Esquisita
TTITLE10=Cada Um Com Seu
TTITLE11=Mulher Dengosa
TTITLE12=Martírio que Virou Rotina
TTITLE13=Sogra Boa
TTITLE14=Morte do Taxista
EXTD=
EXTT0=
EXTT1=
EXTT2=
EXTT3=
EXTT4=
EXTT5=
EXTT6=
EXTT7=
EXTT8=
EXTT9=
EXTT10=
EXTT11=
EXTT12=
EXTT13=
EXTT14=
PLAYORDER=
